<svg width="27" height="29" viewBox="0 0 27 29" fill="none" xmlns="http://www.w3.org/2000/svg">
<path d="M18.2329 28.0312H8.17336C3.64658 28.0312 0 24.1603 0 19.3549V8.67634C0 3.87098 3.64658 0 8.17336 0H18.2329C22.7597 0 26.4062 3.87098 26.4062 8.67634V19.3549C26.4062 24.1603 22.7597 28.0312 18.2329 28.0312ZM8.17336 1.33482C4.33817 1.33482 1.25744 4.60513 1.25744 8.67634V19.3549C1.25744 23.4261 4.33817 26.6964 8.17336 26.6964H18.2329C22.0681 26.6964 25.1488 23.4261 25.1488 19.3549V8.67634C25.1488 4.60513 22.0681 1.33482 18.2329 1.33482H8.17336Z" fill="white"/>
<path d="M13.2552 19.7188C10.0637 19.7188 7.5 16.9973 7.5 13.6094C7.5 10.2214 10.0637 7.5 13.2552 7.5C16.4467 7.5 19.0104 10.2214 19.0104 13.6094C19.0104 16.9973 16.4467 19.7188 13.2552 19.7188ZM13.2552 8.6108C10.6392 8.6108 8.5464 10.8324 8.5464 13.6094C8.5464 16.3864 10.6392 18.608 13.2552 18.608C15.8712 18.608 17.964 16.3864 17.964 13.6094C17.964 10.8324 15.8712 8.6108 13.2552 8.6108Z" fill="white"/>
<path d="M20.8854 7.40625C20.1181 7.40625 19.5312 6.78333 19.5312 5.96875C19.5312 5.15417 20.1181 4.53125 20.8854 4.53125C21.6528 4.53125 22.2396 5.15417 22.2396 5.96875C22.2396 6.78333 21.6528 7.40625 20.8854 7.40625ZM20.8854 5.48958C20.6146 5.48958 20.434 5.68125 20.434 5.96875C20.434 6.25625 20.6146 6.44792 20.8854 6.44792C21.1562 6.44792 21.3368 6.25625 21.3368 5.96875C21.3368 5.68125 21.1562 5.48958 20.8854 5.48958Z" fill="white"/>
</svg>
