<svg width="29" height="29" viewBox="0 0 29 29" fill="none" xmlns="http://www.w3.org/2000/svg">
<path d="M8.68382 7.50774V7.51471V7.56697C8.67909 7.71029 8.64681 7.85139 8.58873 7.98257L9.5031 8.38745L8.58873 7.98257C8.52928 8.11683 8.44396 8.23805 8.33765 8.33932C8.23133 8.44059 8.10611 8.51992 7.96912 8.57277C7.83214 8.62563 7.68608 8.65097 7.5393 8.64736L7.52701 8.64706H7.51471C7.21439 8.64706 6.92637 8.52776 6.71401 8.3154C6.50165 8.10304 6.38235 7.81502 6.38235 7.51471C6.38235 7.21439 6.50165 6.92637 6.71401 6.71401C6.92637 6.50165 7.21439 6.38235 7.51471 6.38235H7.57686C7.72265 6.38374 7.86676 6.41364 8.00108 6.47037C8.13629 6.52748 8.25893 6.61066 8.36199 6.71516C8.46506 6.81966 8.54653 6.94345 8.60175 7.07944C8.65697 7.21543 8.68487 7.36097 8.68385 7.50774L8.68382 7.50774ZM20.6176 22.3235V17.0221C20.6176 15.955 20.369 15.0368 19.7907 14.3751C19.1946 13.693 18.3813 13.4338 17.5809 13.4338H17.4412H17.3946L17.3482 13.4382C16.7785 13.4914 16.2365 13.6851 15.7678 13.9955L15.9554 13.7079C16.2601 13.2405 16.682 12.8611 17.1791 12.6077C17.6761 12.3542 18.231 12.2356 18.7882 12.2635L18.8132 12.2647H18.8382C19.7601 12.2647 20.6182 12.5479 21.2368 13.1253C21.8393 13.6877 22.3231 14.6302 22.3235 16.1743C22.3235 16.175 22.3235 16.1757 22.3235 16.1765L22.2982 22.3235H20.6176ZM12.5588 12.5588H14.0147V13.1618V14.1618H15.0147H15.1176H15.538C15.3538 14.307 15.1835 14.4717 15.0306 14.6542C14.458 15.3375 14.1733 16.2159 14.2353 17.104V22.3235H12.5588V12.5588ZM28 25.1618V3.83824C28 3.08549 27.701 2.36357 27.1687 1.8313C26.6364 1.29903 25.9145 1 25.1618 1H3.83824C3.08549 1 2.36357 1.29903 1.8313 1.8313C1.29903 2.36357 1 3.08549 1 3.83824V25.1618C1 25.9145 1.29903 26.6364 1.8313 27.1687C2.36357 27.701 3.08549 28 3.83824 28H25.1618C25.9145 28 26.6364 27.701 27.1687 27.1687C27.701 26.6364 28 25.9145 28 25.1618ZM6.67647 22.3235V12.5588H8.35294V22.3235H6.67647Z" stroke="white" stroke-width="2"/>
</svg>
