<svg width="31" height="34" viewBox="0 0 31 34" fill="none" xmlns="http://www.w3.org/2000/svg">
<path fill-rule="evenodd" clip-rule="evenodd" d="M14.7369 3C20.8458 3 26.618 8.00361 26.618 15.2816C26.618 19.3755 24.7902 22.7112 22.1927 24.935C22.9623 26.2491 23.9243 27.1588 25.0788 27.1588C26.4256 27.1588 27.0028 26.0469 27.099 25.1372H28.8307C28.9269 26.3502 28.3497 31 23.5395 31C20.5572 31 19.0179 29.1805 17.8635 27.1588C16.9014 27.361 15.8432 27.5632 14.785 27.5632C8.86843 27.5632 3 22.5596 3 15.2816C3 8.00361 8.86843 3 14.7369 3ZM14.785 4.97112C10.3596 4.97112 8.43551 8.45848 8.43551 15.231C8.43551 22.0036 10.3596 25.491 14.785 25.491C15.6027 25.491 16.3242 25.2888 16.9014 25.0866C16.0356 22.9639 14.8812 20.9422 12.6685 20.9422C12.2837 20.9422 11.8989 21.0433 11.514 21.2455L10.8406 19.8303C11.8026 18.9711 13.1014 18.3141 14.8812 18.3141C17.6711 18.3141 19.1141 19.7292 20.2686 21.5487C20.942 20.0325 21.2306 17.9097 21.2306 15.231C21.2306 8.45848 19.3065 4.97112 14.785 4.97112Z" fill="white"/>
</svg>
