<svg width="29" height="29" viewBox="0 0 29 29" fill="none" xmlns="http://www.w3.org/2000/svg">
<path d="M9.86877 16.8735C9.86064 18.128 10.6772 19.0056 11.582 19.5156C12.4886 20.0267 13.635 20.274 14.7344 20.274C15.0095 20.274 15.2792 20.2576 15.5419 20.2247C11.5735 20.957 8.08217 17.4823 8.80198 13.4714L8.8694 13.0958L8.66938 12.7707C7.03535 10.1153 10.1077 7.06188 12.723 8.66143L12.9393 8.7937C12.2883 8.94307 11.7025 9.21158 11.2119 9.59851C10.3096 10.3101 9.81458 11.3585 9.81458 12.5437C9.81458 13.7057 10.3249 14.5417 11.0677 15.1051C10.3064 15.3805 9.87246 16.1664 9.86877 16.8735ZM9.86877 16.8735C9.86876 16.8738 9.86876 16.8742 9.86876 16.8746L10.8687 16.8792L9.86877 16.8723C9.86877 16.8727 9.86877 16.8731 9.86877 16.8735ZM19.1582 11.5578L19.1565 11.5415L19.1542 11.5253C19.1134 11.228 19.0122 10.9511 18.8661 10.6972C19.9512 11.9508 20.5141 13.6743 20.191 15.5226L20.1254 15.8975L20.3258 16.2211C21.9679 18.8741 18.9064 21.9341 16.2851 20.3449L15.9717 20.1549C16.7543 19.9973 17.4591 19.6826 18.0317 19.2074C18.9105 18.4781 19.4042 17.4283 19.4042 16.2167C19.4042 15.0716 18.8904 14.2431 18.1604 13.6815C18.1035 13.6377 18.0453 13.5956 17.9862 13.5551C18.2413 13.4525 18.4749 13.2977 18.6703 13.0871C19.0651 12.6614 19.2149 12.1023 19.1582 11.5578ZM13.6382 16.1989C13.6261 16.1849 13.6129 16.1693 13.5985 16.1522C13.7588 16.1924 13.9081 16.2285 14.0481 16.2622C14.465 16.3627 14.7993 16.4434 15.093 16.5559C15.1293 16.5698 15.1614 16.5829 15.1896 16.595C15.0935 16.6437 14.9145 16.701 14.6031 16.701C14.3194 16.701 14.1563 16.638 14.0454 16.573C13.9185 16.4986 13.8008 16.3874 13.6382 16.1989ZM15.3791 16.7003C15.3778 16.7005 15.3704 16.6952 15.3608 16.6838C15.3757 16.6944 15.3805 16.7001 15.3791 16.7003ZM14.5 28C21.9554 28 28 21.9554 28 14.5C28 7.04459 21.9554 1 14.5 1C7.04459 1 1 7.04459 1 14.5C1 21.9554 7.04459 28 14.5 28Z" stroke="white" stroke-width="2"/>
</svg>
