<svg width="23" height="23" viewBox="0 0 23 23" fill="none" xmlns="http://www.w3.org/2000/svg">
<path d="M23 2.72326C22.1542 3.1844 21.2456 3.49599 20.2904 3.63683C21.2648 2.91893 22.0124 1.77978 22.3649 0.423756C21.4532 1.0893 20.4433 1.57288 19.3686 1.83212C18.5076 0.70543 17.2819 0 15.9246 0C13.3193 0 11.2062 2.59987 11.2062 5.80795C11.2062 6.26162 11.2488 6.70283 11.3278 7.12908C7.40465 6.88604 3.92923 4.57408 1.60147 1.06188C1.19629 1.92186 0.963314 2.91893 0.963314 3.98082C0.963314 5.99491 1.79697 7.77344 3.06214 8.81413C2.28825 8.78298 1.56095 8.52249 0.924822 8.08752V8.1623C0.924822 10.9753 2.5506 13.3222 4.71021 13.8556C4.31313 13.9877 3.89681 14.0575 3.46732 14.0575C3.16344 14.0575 2.86664 14.0226 2.57897 13.9553C3.17964 16.261 4.92192 17.9411 6.98732 17.986C5.37166 19.5439 3.33665 20.4724 1.1264 20.4724C0.74553 20.4724 0.369726 20.445 0 20.3914C2.0887 22.0403 4.5684 23 7.23245 23C15.9134 23 20.6591 14.1535 20.6591 6.48098C20.6591 6.23171 20.654 5.97995 20.6449 5.73068C21.5667 4.91059 22.3669 3.88983 22.998 2.727L23 2.72326Z" fill="white"/>
</svg>
