<svg width="31" height="31" viewBox="0 0 31 31" fill="none" xmlns="http://www.w3.org/2000/svg">
<path d="M26.2152 4.50834C23.3766 1.58627 19.4526 0 15.4452 0C6.92948 0 0.0834878 6.92948 0.166976 15.3617C0.166976 18.0333 0.918365 20.6215 2.17068 22.9591L0 30.8905L8.09831 28.8033C10.3525 30.0556 12.8571 30.64 15.3617 30.64C23.794 30.64 30.64 23.7105 30.64 15.2783C30.64 11.1874 29.0537 7.34692 26.2152 4.50834ZM15.4452 28.0519C13.1911 28.0519 10.9369 27.4675 9.01668 26.2986L8.51575 26.0482L3.67346 27.3005L4.92578 22.5417L4.59183 22.0408C0.918365 16.1131 2.67161 8.26529 8.68272 4.59183C14.6938 0.918365 22.4582 2.67161 26.1317 8.68272C29.8051 14.6938 28.0519 22.4582 22.0408 26.1317C20.1205 27.384 17.7829 28.0519 15.4452 28.0519ZM22.7922 18.7847L21.8738 18.3673C21.8738 18.3673 20.538 17.7829 19.7031 17.3654C19.6196 17.3654 19.5361 17.282 19.4526 17.282C19.2022 17.282 19.0352 17.3654 18.8682 17.4489C18.8682 17.4489 18.7847 17.5324 17.6159 18.8682C17.5324 19.0352 17.3654 19.1187 17.1985 19.1187H17.115C17.0315 19.1187 16.8645 19.0352 16.781 18.9517L16.3636 18.7847C15.4452 18.3673 14.6104 17.8664 13.9425 17.1985C13.7755 17.0315 13.525 16.8645 13.358 16.6975C12.7736 16.1131 12.1892 15.4452 11.7718 14.6938L11.6883 14.5269C11.6048 14.4434 11.6048 14.3599 11.5213 14.1929C11.5213 14.0259 11.5213 13.859 11.6048 13.7755C11.6048 13.7755 11.9387 13.358 12.1892 13.1076C12.3562 12.9406 12.4397 12.6901 12.6066 12.5232C12.7736 12.2727 12.8571 11.9387 12.7736 11.6883C12.6901 11.2708 11.6883 9.01667 11.4378 8.51575C11.2708 8.26529 11.1039 8.1818 10.8534 8.09831H9.93504C9.76806 8.09831 9.60109 8.1818 9.43411 8.1818L9.35063 8.26529C9.18365 8.34877 9.01668 8.51575 8.8497 8.59924C8.68272 8.76621 8.59924 8.93319 8.43226 9.10016C7.84785 9.85155 7.5139 10.7699 7.5139 11.6883C7.5139 12.3562 7.68087 13.0241 7.93133 13.6085L8.01482 13.859C8.76621 15.4452 9.76807 16.8645 11.1039 18.1168L11.4378 18.4508C11.6883 18.7013 11.9387 18.8682 12.1057 19.1187C13.859 20.6215 15.8627 21.7068 18.1168 22.2912C18.3673 22.3747 18.7013 22.3747 18.9517 22.4582H19.7866C20.204 22.4582 20.705 22.2912 21.0389 22.1242C21.2894 21.9573 21.4563 21.9573 21.6233 21.7903L21.7903 21.6233C21.9573 21.4563 22.1243 21.3729 22.2912 21.2059C22.4582 21.0389 22.6252 20.8719 22.7087 20.705C22.8756 20.371 22.9591 19.9536 23.0426 19.5361V18.9517C23.0426 18.9517 22.9591 18.8682 22.7922 18.7847Z" fill="white"/>
</svg>
